<svg xmlns="http://www.w3.org/2000/svg" xmlns:xlink="http://www.w3.org/1999/xlink" viewBox="0 0 800 800" width="100%" height="100%">
  <defs>
    <!-- Background and Arena Gradients -->
    <radialGradient id="arenaBg" cx="50%" cy="45%" r="75%">
      <stop offset="0%" stop-color="#2a163d" />
      <stop offset="45%" stop-color="#180d26" />
      <stop offset="85%" stop-color="#0d0617" />
      <stop offset="100%" stop-color="#05020a" />
    </radialGradient>

    <linearGradient id="tentDrapeGradL" x1="0%" y1="0%" x2="100%" y2="100%">
      <stop offset="0%" stop-color="#800c1e" />
      <stop offset="40%" stop-color="#aa142a" />
      <stop offset="75%" stop-color="#560612" />
      <stop offset="100%" stop-color="#2b0208" />
    </linearGradient>

    <linearGradient id="tentDrapeGradR" x1="100%" y1="0%" x2="0%" y2="100%">
      <stop offset="0%" stop-color="#800c1e" />
      <stop offset="40%" stop-color="#aa142a" />
      <stop offset="75%" stop-color="#560612" />
      <stop offset="100%" stop-color="#2b0208" />
    </linearGradient>

    <linearGradient id="goldTrim" x1="0%" y1="0%" x2="100%" y2="0%">
      <stop offset="0%" stop-color="#ffd54f" />
      <stop offset="50%" stop-color="#fff9c4" />
      <stop offset="100%" stop-color="#ffb300" />
    </linearGradient>

    <!-- Spotlights -->
    <linearGradient id="spotLightL" x1="0%" y1="0%" x2="80%" y2="100%">
      <stop offset="0%" stop-color="#fff8e1" stop-opacity="0.3" />
      <stop offset="40%" stop-color="#ffe082" stop-opacity="0.15" />
      <stop offset="80%" stop-color="#ffca28" stop-opacity="0.04" />
      <stop offset="100%" stop-color="#ffc107" stop-opacity="0" />
    </linearGradient>

    <linearGradient id="spotLightR" x1="100%" y1="0%" x2="20%" y2="100%">
      <stop offset="0%" stop-color="#e1f5fe" stop-opacity="0.32" />
      <stop offset="40%" stop-color="#81d4fa" stop-opacity="0.16" />
      <stop offset="80%" stop-color="#29b6f6" stop-opacity="0.04" />
      <stop offset="100%" stop-color="#0288d1" stop-opacity="0" />
    </linearGradient>

    <!-- Stage Floor Gradients -->
    <radialGradient id="stageFloor" cx="50%" cy="40%" r="55%">
      <stop offset="0%" stop-color="#4e342e" />
      <stop offset="45%" stop-color="#37241e" />
      <stop offset="75%" stop-color="#241410" />
      <stop offset="100%" stop-color="#120907" />
    </radialGradient>

    <radialGradient id="stageRing" cx="50%" cy="50%" r="50%">
      <stop offset="0%" stop-color="#ffe082" stop-opacity="0.8" />
      <stop offset="70%" stop-color="#ffb300" stop-opacity="0.4" />
      <stop offset="100%" stop-color="#ff8f00" stop-opacity="0" />
    </radialGradient>

    <radialGradient id="floorShadow" cx="50%" cy="50%" r="50%">
      <stop offset="0%" stop-color="#000000" stop-opacity="0.75" />
      <stop offset="60%" stop-color="#000000" stop-opacity="0.35" />
      <stop offset="100%" stop-color="#000000" stop-opacity="0" />
    </radialGradient>

    <!-- Anteater Fur Gradients -->
    <linearGradient id="furBody" x1="20%" y1="10%" x2="80%" y2="90%">
      <stop offset="0%" stop-color="#8d8078" />
      <stop offset="35%" stop-color="#6d615a" />
      <stop offset="70%" stop-color="#544943" />
      <stop offset="100%" stop-color="#3c332e" />
    </linearGradient>

    <linearGradient id="furSnout" x1="0%" y1="20%" x2="100%" y2="80%">
      <stop offset="0%" stop-color="#b0a49c" />
      <stop offset="30%" stop-color="#8d8078" />
      <stop offset="70%" stop-color="#665b54" />
      <stop offset="100%" stop-color="#463c36" />
    </linearGradient>

    <linearGradient id="furChestBlack" x1="10%" y1="20%" x2="90%" y2="80%">
      <stop offset="0%" stop-color="#2c2421" />
      <stop offset="50%" stop-color="#1a1412" />
      <stop offset="100%" stop-color="#100b0a" />
    </linearGradient>

    <linearGradient id="furWhiteStripe" x1="0%" y1="0%" x2="100%" y2="100%">
      <stop offset="0%" stop-color="#ffffff" />
      <stop offset="60%" stop-color="#f5ede3" />
      <stop offset="100%" stop-color="#dfd2c4" />
    </linearGradient>

    <linearGradient id="furTailBase" x1="0%" y1="10%" x2="100%" y2="90%">
      <stop offset="0%" stop-color="#5d4c42" />
      <stop offset="30%" stop-color="#3e3028" />
      <stop offset="65%" stop-color="#241a15" />
      <stop offset="100%" stop-color="#150f0c" />
    </linearGradient>

    <linearGradient id="tongueGrad" x1="0%" y1="0%" x2="100%" y2="50%">
      <stop offset="0%" stop-color="#ff80ab" />
      <stop offset="50%" stop-color="#f06292" />
      <stop offset="100%" stop-color="#c2185b" />
    </linearGradient>

    <linearGradient id="clawGrad" x1="0%" y1="0%" x2="100%" y2="100%">
      <stop offset="0%" stop-color="#fffde7" />
      <stop offset="45%" stop-color="#ded4c5" />
      <stop offset="85%" stop-color="#9e9182" />
      <stop offset="100%" stop-color="#5d5245" />
    </linearGradient>

    <!-- Circus Costume Gradients -->
    <linearGradient id="vestRed" x1="0%" y1="0%" x2="100%" y2="100%">
      <stop offset="0%" stop-color="#e53935" />
      <stop offset="40%" stop-color="#c62828" />
      <stop offset="80%" stop-color="#8e0000" />
      <stop offset="100%" stop-color="#5f0000" />
    </linearGradient>

    <linearGradient id="hatRuby" x1="0%" y1="0%" x2="100%" y2="60%">
      <stop offset="0%" stop-color="#c2185b" />
      <stop offset="45%" stop-color="#880e4f" />
      <stop offset="100%" stop-color="#4a0024" />
    </linearGradient>

    <!-- Unicycle Hardware Gradients -->
    <linearGradient id="chromeMetal" x1="0%" y1="0%" x2="100%" y2="0%">
      <stop offset="0%" stop-color="#cfd8dc" />
      <stop offset="25%" stop-color="#ffffff" />
      <stop offset="50%" stop-color="#90a4ae" />
      <stop offset="75%" stop-color="#eceff1" />
      <stop offset="100%" stop-color="#607d8b" />
    </linearGradient>

    <linearGradient id="tireRubber" x1="0%" y1="0%" x2="100%" y2="100%">
      <stop offset="0%" stop-color="#455a64" />
      <stop offset="40%" stop-color="#263238" />
      <stop offset="80%" stop-color="#182024" />
      <stop offset="100%" stop-color="#0e1315" />
    </linearGradient>

    <radialGradient id="wheelHubGrad" cx="40%" cy="35%" r="60%">
      <stop offset="0%" stop-color="#ffffff" />
      <stop offset="35%" stop-color="#b0bec5" />
      <stop offset="75%" stop-color="#546e7a" />
      <stop offset="100%" stop-color="#263238" />
    </radialGradient>

    <linearGradient id="leatherSaddle" x1="0%" y1="0%" x2="0%" y2="100%">
      <stop offset="0%" stop-color="#3e2723" />
      <stop offset="40%" stop-color="#1b0000" />
      <stop offset="80%" stop-color="#27120c" />
      <stop offset="100%" stop-color="#0d0402" />
    </linearGradient>

    <!-- Bottle 1: Emerald "Formic Fizz" -->
    <linearGradient id="glassGreen" x1="0%" y1="0%" x2="100%" y2="0%">
      <stop offset="0%" stop-color="#1b5e20" stop-opacity="0.9" />
      <stop offset="20%" stop-color="#4caf50" stop-opacity="0.8" />
      <stop offset="45%" stop-color="#a5d6a7" stop-opacity="0.9" />
      <stop offset="65%" stop-color="#388e3c" stop-opacity="0.85" />
      <stop offset="90%" stop-color="#1b5e20" stop-opacity="0.95" />
      <stop offset="100%" stop-color="#003300" stop-opacity="1" />
    </linearGradient>

    <linearGradient id="liquidGreen" x1="0%" y1="0%" x2="100%" y2="100%">
      <stop offset="0%" stop-color="#81c784" stop-opacity="0.9" />
      <stop offset="50%" stop-color="#43a047" stop-opacity="0.95" />
      <stop offset="100%" stop-color="#1b5e20" stop-opacity="1" />
    </linearGradient>

    <!-- Bottle 2: Ruby / Amber "Termite Tonic" -->
    <linearGradient id="glassRuby" x1="0%" y1="0%" x2="100%" y2="0%">
      <stop offset="0%" stop-color="#b71c1c" stop-opacity="0.95" />
      <stop offset="22%" stop-color="#ff5252" stop-opacity="0.8" />
      <stop offset="45%" stop-color="#ffcdd2" stop-opacity="0.9" />
      <stop offset="70%" stop-color="#d32f2f" stop-opacity="0.85" />
      <stop offset="92%" stop-color="#880e4f" stop-opacity="0.95" />
      <stop offset="100%" stop-color="#49000b" stop-opacity="1" />
    </linearGradient>

    <linearGradient id="liquidAmber" x1="0%" y1="0%" x2="100%" y2="100%">
      <stop offset="0%" stop-color="#ffb74d" stop-opacity="0.9" />
      <stop offset="50%" stop-color="#e65100" stop-opacity="0.95" />
      <stop offset="100%" stop-color="#8e24aa" stop-opacity="0.95" />
    </linearGradient>

    <!-- Bottle 3: Cobalt "Ant-Zing" -->
    <linearGradient id="glassCobalt" x1="0%" y1="0%" x2="100%" y2="0%">
      <stop offset="0%" stop-color="#0d47a1" stop-opacity="0.95" />
      <stop offset="25%" stop-color="#42a5f5" stop-opacity="0.8" />
      <stop offset="48%" stop-color="#e3f2fd" stop-opacity="0.9" />
      <stop offset="72%" stop-color="#1976d2" stop-opacity="0.85" />
      <stop offset="92%" stop-color="#0a2a66" stop-opacity="0.95" />
      <stop offset="100%" stop-color="#001033" stop-opacity="1" />
    </linearGradient>

    <linearGradient id="liquidAqua" x1="0%" y1="0%" x2="100%" y2="100%">
      <stop offset="0%" stop-color="#80deea" stop-opacity="0.9" />
      <stop offset="50%" stop-color="#00acc1" stop-opacity="0.95" />
      <stop offset="100%" stop-color="#006064" stop-opacity="1" />
    </linearGradient>

    <!-- Sparkle / Star Symbol -->
    <g id="sparkleStar">
      <path d="M 0 -8 Q 1.5 -1.5 8 0 Q 1.5 1.5 0 8 Q -1.5 1.5 -8 0 Q -1.5 -1.5 0 -8 Z" fill="url(#goldTrim)" />
      <circle cx="0" cy="0" r="1.5" fill="#ffffff" />
    </g>

    <!-- Bottle 1: Green Glass Soda Bottle -->
    <g id="bottle-green">
      <!-- Shadow / Glow behind bottle -->
      <ellipse cx="0" cy="0" rx="14" ry="26" fill="#81c784" opacity="0.18" filter="blur(3px)" />
      <!-- Bottle Body -->
      <path d="M -5 -24 L 5 -24 L 6 -20 L 4 -12 C 4 -8, 10 -4, 10 3 L 10 18 C 10 23, 7 25, 0 25 C -7 25, -10 23, -10 18 L -10 3 C -10 -4, -4 -8, -4 -12 L -6 -20 Z"
            fill="url(#glassGreen)" stroke="#a5d6a7" stroke-width="0.7" />
      <!-- Liquid Contents -->
      <path d="M -9 4 C -9 -1, -3 -4, 0 -4 C 3 -4, 9 -1, 9 4 L 9 17 C 9 22, 6 24, 0 24 C -6 24, -9 22, -9 17 Z"
            fill="url(#liquidGreen)" />
      <!-- Internal Fizz Bubbles -->
      <circle cx="-3" cy="8" r="1" fill="#e8f5e9" opacity="0.8" />
      <circle cx="3" cy="14" r="1.2" fill="#e8f5e9" opacity="0.9" />
      <circle cx="-1" cy="18" r="0.8" fill="#e8f5e9" opacity="0.7" />
      <circle cx="2" cy="3" r="0.9" fill="#e8f5e9" opacity="0.8" />
      <!-- Label -->
      <rect x="-8" y="5" width="16" height="11" rx="2" fill="#fffde7" stroke="#ffb300" stroke-width="0.8" />
      <rect x="-7" y="6" width="14" height="9" fill="none" stroke="#2e7d32" stroke-width="0.5" stroke-dasharray="2 1" />
      <text x="0" y="11" font-family="'Impact', 'Arial Black', sans-serif" font-size="4.2" fill="#1b5e20" text-anchor="middle">ANT</text>
      <text x="0" y="14.5" font-family="'Arial', sans-serif" font-weight="bold" font-size="2.8" fill="#c62828" text-anchor="middle">FIZZ</text>
      <!-- Tiny Ant silhouette on label -->
      <circle cx="-5" cy="8.5" r="0.6" fill="#1b5e20" />
      <circle cx="-4" cy="8.5" r="0.8" fill="#1b5e20" />
      <!-- Crown Cap -->
      <path d="M -6 -24 L 6 -24 L 6 -27 L -6 -27 Z" fill="url(#goldTrim)" stroke="#ff8f00" stroke-width="0.5" />
      <line x1="-5" y1="-24" x2="-5" y2="-22" stroke="#e65100" stroke-width="0.5" />
      <line x1="0" y1="-24" x2="0" y2="-22" stroke="#e65100" stroke-width="0.5" />
      <line x1="5" y1="-24" x2="5" y2="-22" stroke="#e65100" stroke-width="0.5" />
      <!-- Specular Glass Sheen -->
      <path d="M -8 3 L -8 18 C -8 21, -6 22, -4 23 L -4 4 C -4 -4, -2 -8, -2 -12 L -4 -20 L -3 -20 L -1 -12 C -1 -8, -7 -3, -8 3 Z"
            fill="#ffffff" opacity="0.55" />
      <ellipse cx="6" cy="8" rx="1.2" ry="7" fill="#ffffff" opacity="0.35" />
    </g>

    <!-- Bottle 2: Ruby / Amber Bowling Pin Bottle -->
    <g id="bottle-ruby">
      <ellipse cx="0" cy="0" rx="14" ry="26" fill="#ff5252" opacity="0.18" filter="blur(3px)" />
      <!-- Bottle Body -->
      <path d="M -4.5 -23 L 4.5 -23 L 5 -18 L 3.5 -10 C 3.5 -6, 9.5 0, 9.5 8 C 9.5 17, 7 24, 0 24 C -7 24, -9.5 17, -9.5 8 C -9.5 0, -3.5 -6, -3.5 -10 L -5 -18 Z"
            fill="url(#glassRuby)" stroke="#ff8a80" stroke-width="0.7" />
      <!-- Liquid Contents -->
      <path d="M -8 8 C -8 2, -3 -2, 0 -2 C 3 -2, 8 2, 8 8 C 8 16, 6 22, 0 22 C -6 22, -8 16, -8 8 Z"
            fill="url(#liquidAmber)" />
      <!-- Effervescence -->
      <circle cx="-2" cy="11" r="1.2" fill="#fff9c4" opacity="0.8" />
      <circle cx="3" cy="7" r="0.9" fill="#fff9c4" opacity="0.9" />
      <circle cx="1" cy="16" r="1" fill="#fff9c4" opacity="0.7" />
      <!-- Diamond Vintage Label -->
      <polygon points="0,2 8,9 0,16 -8,9" fill="#fff8e1" stroke="#b71c1c" stroke-width="0.8" />
      <polygon points="0,3.5 6.5,9 0,14.5 -6.5,9" fill="none" stroke="#d32f2f" stroke-width="0.4" />
      <text x="0" y="8" font-family="'Impact', sans-serif" font-size="3.2" fill="#b71c1c" text-anchor="middle">TERMITE</text>
      <text x="0" y="11.5" font-family="'Arial', sans-serif" font-weight="bold" font-size="2.6" fill="#e65100" text-anchor="middle">TONIC</text>
      <!-- Cork Stopper and Gold Foil -->
      <path d="M -4 -23 L 4 -23 L 3.5 -28 L -3.5 -28 Z" fill="#d7ccc8" stroke="#8d6e63" stroke-width="0.6" />
      <line x1="-3.5" y1="-25.5" x2="3.5" y2="-25.5" stroke="#a1887f" stroke-width="0.5" />
      <path d="M -5 -21 L 5 -21 L 5 -18 L -5 -18 Z" fill="url(#goldTrim)" />
      <!-- Specular Highlights -->
      <path d="M -7.5 7 C -7.5 15, -5 20, -3 21 L -3 7 C -3 0, -1 -5, -1 -9 L -3 -18 L -2.2 -18 L -0.2 -9 C -0.2 -5, -7.5 1, -7.5 7 Z"
            fill="#ffffff" opacity="0.6" />
      <ellipse cx="6" cy="10" rx="1.2" ry="6" fill="#ffffff" opacity="0.35" />
    </g>

    <!-- Bottle 3: Cobalt Blue Tonic Bottle -->
    <g id="bottle-cobalt">
      <ellipse cx="0" cy="0" rx="14" ry="26" fill="#42a5f5" opacity="0.2" filter="blur(3px)" />
      <!-- Bottle Body -->
      <path d="M -4.5 -24 L 4.5 -24 L 5.5 -19 L 4 -12 C 4 -7, 10.5 -3, 10.5 4 L 10.5 18 C 10.5 23.5, 7.5 25, 0 25 C -7.5 25, -10.5 23.5, -10.5 18 L -10.5 4 C -10.5 -3, -4 -7, -4 -12 L -5.5 -19 Z"
            fill="url(#glassCobalt)" stroke="#90caf9" stroke-width="0.7" />
      <!-- Liquid Contents -->
      <path d="M -9.5 5 C -9.5 0, -3 -3, 0 -3 C 3 -3, 9.5 0, 9.5 5 L 9.5 17 C 9.5 22, 6.5 23.8, 0 23.8 C -6.5 23.8, -9.5 22, -9.5 17 Z"
            fill="url(#liquidAqua)" />
      <!-- Sparkle bubbles -->
      <circle cx="-3" cy="9" r="1.1" fill="#e1f5fe" opacity="0.9" />
      <circle cx="2" cy="6" r="0.8" fill="#e1f5fe" opacity="0.8" />
      <circle cx="4" cy="15" r="1.3" fill="#e1f5fe" opacity="0.75" />
      <!-- Retro Badge Label -->
      <rect x="-8.5" y="4" width="17" height="12" rx="3" fill="#e3f2fd" stroke="#ffd54f" stroke-width="0.9" />
      <circle cx="0" cy="10" r="4.2" fill="#0d47a1" />
      <polygon points="0,7 1,9 3.2,9.2 1.6,10.6 2.1,12.8 0,11.6 -2.1,12.8 -1.6,10.6 -3.2,9.2 -1,9" fill="#ffd54f" />
      <text x="0" y="8" font-family="'Impact', sans-serif" font-size="2.6" fill="#0d47a1" text-anchor="middle">NECTAR</text>
      <text x="0" y="14.6" font-family="'Arial Black', sans-serif" font-size="2.2" fill="#0277bd" text-anchor="middle">ROYALE</text>
      <!-- Silver Knurled Cap -->
      <rect x="-5" y="-27" width="10" height="4" rx="0.8" fill="url(#chromeMetal)" stroke="#78909c" stroke-width="0.5" />
      <line x1="-3" y1="-27" x2="-3" y2="-23" stroke="#455a64" stroke-width="0.5" />
      <line x1="0" y1="-27" x2="0" y2="-23" stroke="#455a64" stroke-width="0.5" />
      <line x1="3" y1="-27" x2="3" y2="-23" stroke="#455a64" stroke-width="0.5" />
      <!-- Specular Highlights -->
      <path d="M -8.5 4 L -8.5 18 C -8.5 21, -6.5 22.5, -4 23.5 L -4 5 C -4 -2, -2 -6, -2 -11 L -4 -19 L -3.2 -19 L -1.2 -11 C -1.2 -6, -7.5 -1, -8.5 4 Z"
            fill="#ffffff" opacity="0.65" />
      <ellipse cx="6.5" cy="8" rx="1.2" ry="6.5" fill="#ffffff" opacity="0.4" />
    </g>

    <!-- The Exact Mathematical 3-Bottle Juggling Cascade Path -->
    <path id="jugglePath"
          d="M 350 280 C 370 80, 480 80, 500 300 C 510 335, 475 335, 450 280 C 430 80, 320 80, 300 300 C 290 335, 325 335, 350 280 Z"
          fill="none" />
  </defs>

  <style>
    <![CDATA[
    /* CSS Animations for Atmospheric Elements and Kinematics */
    @keyframes spotlightWobbleL {
      0% { opacity: 0.85; transform: rotate(-0.8deg); }
      50% { opacity: 1; transform: rotate(1.2deg); }
      100% { opacity: 0.85; transform: rotate(-0.8deg); }
    }
    @keyframes spotlightWobbleR {
      0% { opacity: 0.9; transform: rotate(1deg); }
      50% { opacity: 0.75; transform: rotate(-1deg); }
      100% { opacity: 0.9; transform: rotate(1deg); }
    }
    @keyframes sparkleFade {
      0%, 100% { opacity: 0.15; transform: scale(0.6); }
      50% { opacity: 1; transform: scale(1.25); }
    }
    @keyframes trailDash {
      0% { stroke-dashoffset: 0; }
      100% { stroke-dashoffset: -40; }
    }
    @keyframes floorGlowPulse {
      0%, 100% { opacity: 0.75; transform: scale(1); }
      50% { opacity: 0.95; transform: scale(1.04); }
    }
    @keyframes buntingSway {
      0%, 100% { transform: rotate(0deg); }
      50% { transform: rotate(1deg); }
    }

    .spot-left {
      transform-origin: 140px 0px;
      animation: spotlightWobbleL 5.4s ease-in-out infinite;
    }
    .spot-right {
      transform-origin: 660px 0px;
      animation: spotlightWobbleR 6.2s ease-in-out infinite;
    }
    .sp-1 { animation: sparkleFade 1.8s ease-in-out infinite 0.1s; }
    .sp-2 { animation: sparkleFade 2.1s ease-in-out infinite 0.6s; }
    .sp-3 { animation: sparkleFade 1.7s ease-in-out infinite 1.1s; }
    .sp-4 { animation: sparkleFade 2.3s ease-in-out infinite 1.5s; }
    .sp-5 { animation: sparkleFade 1.9s ease-in-out infinite 0.4s; }
    .sp-6 { animation: sparkleFade 2.0s ease-in-out infinite 0.9s; }
    .sp-7 { animation: sparkleFade 1.6s ease-in-out infinite 1.3s; }
    .sp-8 { animation: sparkleFade 2.2s ease-in-out infinite 1.7s; }

    .glow-floor {
      transform-origin: 400px 700px;
      animation: floorGlowPulse 2.4s ease-in-out infinite;
    }
    .cascade-guide {
      stroke-dasharray: 6 6;
      animation: trailDash 2.4s linear infinite;
    }
    .bunting-group {
      transform-origin: 400px 40px;
      animation: buntingSway 4s ease-in-out infinite;
    }
    ]]>
  </style>

  <!-- ==================== BACKGROUND ARENA ==================== -->
  <rect x="0" y="0" width="800" height="800" fill="url(#arenaBg)" />

  <!-- Circus Tent Drapes (Top Scallops and Swags) -->
  <g id="circus-canopy">
    <!-- Velvet Curtains Framing Corners -->
    <path d="M 0 0 L 170 0 C 150 70, 110 130, 0 170 Z" fill="url(#tentDrapeGradL)" />
    <path d="M 0 0 L 150 0 C 130 60, 90 110, 0 145 Z" fill="#660a18" opacity="0.6" />
    <path d="M 800 0 L 630 0 C 650 70, 690 130, 800 170 Z" fill="url(#tentDrapeGradR)" />
    <path d="M 800 0 L 650 0 C 670 60, 710 110, 800 145 Z" fill="#660a18" opacity="0.6" />

    <!-- Top Scalloped Swags -->
    <path d="M 120 0 Q 200 45 280 0 Q 360 45 440 0 Q 520 45 600 0 Q 680 45 740 0 L 740 0 Q 680 35 600 0 Q 520 35 440 0 Q 360 35 280 0 Q 200 35 120 0 Z"
          fill="url(#goldTrim)" />
    <path d="M 140 0 Q 210 50 280 0 Q 350 50 420 0 Q 490 50 560 0 Q 630 50 700 0"
          fill="none" stroke="#b71c1c" stroke-width="4" />
  </g>

  <!-- Circus Bunting Flags Banner -->
  <g class="bunting-group">
    <path d="M 40 45 Q 220 95 400 90 Q 580 95 760 45" fill="none" stroke="#ffca28" stroke-width="2" />
    <!-- Flags strung along banner -->
    <polygon points="90,56 120,62 105,96" fill="#e53935" />
    <polygon points="140,66 170,72 155,106" fill="#ffd54f" />
    <polygon points="190,75 220,80 205,114" fill="#00bcd4" />
    <polygon points="240,82 270,85 255,119" fill="#ab47bc" />
    <polygon points="290,87 320,89 305,123" fill="#4caf50" />
    <polygon points="340,89 370,90 355,124" fill="#ff7043" />
    <polygon points="390,90 420,90 405,124" fill="#ffd54f" />
    <polygon points="440,89 470,88 455,122" fill="#29b6f6" />
    <polygon points="490,87 520,84 505,118" fill="#e91e63" />
    <polygon points="540,83 570,79 555,113" fill="#8bc34a" />
    <polygon points="590,77 620,72 605,106" fill="#ffb300" />
    <polygon points="640,69 670,63 655,98" fill="#9c27b0" />
    <polygon points="690,59 720,53 705,88" fill="#26a69a" />
  </g>

  <!-- Crossed Theatrical Spotlights -->
  <g class="spot-left">
    <polygon points="140,0 230,0 560,740 280,740" fill="url(#spotLightL)" />
  </g>
  <g class="spot-right">
    <polygon points="660,0 570,0 240,740 520,740" fill="url(#spotLightR)" />
  </g>

  <!-- Circus Arena Ring Stage Floor -->
  <g id="circus-floor">
    <!-- Stage Floor Base -->
    <ellipse cx="400" cy="715" rx="360" ry="85" fill="url(#stageFloor)" stroke="#5d4037" stroke-width="4" />
    <!-- Golden Circus Ring Boundary Curb -->
    <ellipse cx="400" cy="715" rx="352" ry="80" fill="none" stroke="url(#goldTrim)" stroke-width="6" />
    <ellipse cx="400" cy="715" rx="346" ry="77" fill="none" stroke="#ff6f00" stroke-width="2" />
    <!-- Stage Planks Subtle Perspective Lines -->
    <path d="M 120 725 Q 400 755 680 725" fill="none" stroke="#271813" stroke-width="1.5" opacity="0.6" />
    <path d="M 180 705 Q 400 735 620 705" fill="none" stroke="#271813" stroke-width="1.5" opacity="0.6" />
    <path d="M 260 685 Q 400 710 540 685" fill="none" stroke="#271813" stroke-width="1.5" opacity="0.6" />

    <!-- Illuminated Stage Center Spotlight Pool -->
    <ellipse class="glow-floor" cx="400" cy="700" rx="170" ry="38" fill="url(#stageRing)" />

    <!-- Arena Marquee Rim Lights (Front Curb) -->
    <circle cx="160" cy="728" r="4" fill="#fff9c4" stroke="#ffb300" stroke-width="1.5" />
    <circle cx="210" cy="746" r="4" fill="#ff8a80" stroke="#d50000" stroke-width="1.5" />
    <circle cx="270" cy="762" r="4" fill="#80d8ff" stroke="#0091ea" stroke-width="1.5" />
    <circle cx="335" cy="773" r="4" fill="#ffd180" stroke="#ff6d00" stroke-width="1.5" />
    <circle cx="400" cy="777" r="4.5" fill="#fff9c4" stroke="#ffb300" stroke-width="1.5" />
    <circle cx="465" cy="773" r="4" fill="#b9f6ca" stroke="#00c853" stroke-width="1.5" />
    <circle cx="530" cy="762" r="4" fill="#ea80fc" stroke="#aa00ff" stroke-width="1.5" />
    <circle cx="590" cy="746" r="4" fill="#80d8ff" stroke="#0091ea" stroke-width="1.5" />
    <circle cx="640" cy="728" r="4" fill="#fff9c4" stroke="#ffb300" stroke-width="1.5" />
  </g>

  <!-- Faint Glowing Cascade Trajectory Guide Trail -->
  <path class="cascade-guide"
        d="M 350 280 C 370 80, 480 80, 500 300 C 510 335, 475 335, 450 280 C 430 80, 320 80, 300 300 C 290 335, 325 335, 350 280 Z"
        fill="none" stroke="#ffe082" stroke-width="1.6" opacity="0.35" />

  <!-- Floating Sparkles and Dust Motes Along Flight Path -->
  <g class="sp-1" transform="translate(365, 95)"><use href="#sparkleStar" xlink:href="#sparkleStar" /></g>
  <g class="sp-2" transform="translate(435, 95)"><use href="#sparkleStar" xlink:href="#sparkleStar" /></g>
  <g class="sp-3" transform="translate(400, 185)"><use href="#sparkleStar" xlink:href="#sparkleStar" /></g>
  <g class="sp-4" transform="translate(485, 230)"><use href="#sparkleStar" xlink:href="#sparkleStar" /></g>
  <g class="sp-5" transform="translate(315, 230)"><use href="#sparkleStar" xlink:href="#sparkleStar" /></g>
  <g class="sp-6" transform="translate(470, 140)"><use href="#sparkleStar" xlink:href="#sparkleStar" /></g>
  <g class="sp-7" transform="translate(330, 140)"><use href="#sparkleStar" xlink:href="#sparkleStar" /></g>
  <g class="sp-8" transform="translate(400, 75)"><use href="#sparkleStar" xlink:href="#sparkleStar" /></g>


  <!-- ==================== UNICYCLE AND ANTEATER PERFORMER ==================== -->
  <!-- Dynamic Unicycle Contact Shadow on Floor -->
  <g id="performer-shadow">
    <ellipse cx="400" cy="698" rx="36" ry="12" fill="url(#floorShadow)">
      <animateTransform attributeName="transform" type="scale"
        values="1 1; 1.15 0.9; 0.92 1.05; 1.12 0.92; 1 1"
        keyTimes="0; 0.25; 0.5; 0.75; 1"
        dur="2.4s" repeatCount="indefinite" />
    </ellipse>
  </g>

  <!-- Complete Performer and Rig Swaying as an Organic Balanced Unit -->
  <!-- Pivots at unicycle contact patch on ground: (400, 698) -->
  <g id="balancing-performer">
    <animateTransform attributeName="transform" type="rotate"
      values="-1.5 400 698; 1.2 400 698; -1.0 400 698; 1.5 400 698; -1.5 400 698"
      keyTimes="0; 0.25; 0.5; 0.75; 1"
      dur="2.4s" repeatCount="indefinite" calcMode="spline"
      keySplines="0.45 0.05 0.55 0.95; 0.45 0.05 0.55 0.95; 0.45 0.05 0.55 0.95; 0.45 0.05 0.55 0.95" />

    <!-- 1. BACKGROUND CRANK AND PEDAL (180 deg out of phase with foreground) -->
    <g id="bg-pedal-assembly">
      <!-- Background Crank Arm rotating around hub (400, 630) -->
      <g>
        <animateTransform attributeName="transform" type="rotate"
          from="180 400 630" to="540 400 630"
          dur="2.4s" repeatCount="indefinite" />

        <line x1="400" y1="630" x2="400" y2="602" stroke="#455a64" stroke-width="7" stroke-linecap="round" />
        <circle cx="400" cy="602" r="4" fill="#263238" />

        <!-- Background Pedal Platform: counter-rotates to stay level -->
        <g>
          <animateTransform attributeName="transform" type="rotate"
            from="-180 400 602" to="-540 400 602"
            dur="2.4s" repeatCount="indefinite" />
          <rect x="388" y="598" width="24" height="7" rx="2" fill="#212121" stroke="#ff9800" stroke-width="1" />
          <!-- Background Foot (dimmed in perspective) -->
          <ellipse cx="400" cy="597" rx="11" ry="5" fill="#3e3530" />
          <path d="M 408 597 Q 415 596 418 600" stroke="#d7ccc8" stroke-width="2" stroke-linecap="round" fill="none" />
        </g>
      </g>
    </g>

    <!-- 2. BACKGROUND LEG (Hip to pedal) -->
    <g id="bg-leg">
      <path d="M 390 460 C 375 500, 395 550, 400 598" fill="none" stroke="#4a3f39" stroke-width="16" stroke-linecap="round" />
      <path d="M 390 460 C 375 500, 395 550, 400 598" fill="none" stroke="#322924" stroke-width="8" stroke-linecap="round" />
    </g>

    <!-- 3. MAGNIFICENT BUSHY TAIL (Counterweight Swaying Behind Anteater) -->
    <!-- Attached to lower pelvis at (315, 450) -->
    <g id="anteater-tail">
      <animateTransform attributeName="transform" type="rotate"
        values="0 315 450; 5 315 450; -3 315 450; 6 315 450; 0 315 450"
        keyTimes="0; 0.25; 0.5; 0.75; 1"
        dur="2.4s" repeatCount="indefinite" calcMode="spline"
        keySplines="0.45 0.05 0.55 0.95; 0.45 0.05 0.55 0.95; 0.45 0.05 0.55 0.95; 0.45 0.05 0.55 0.95" />

      <!-- Massive Flowing Fur Silhouette -->
      <path d="M 315 440
               C 270 380, 200 340, 110 370
               C 50 390, 40 450, 75 490
               C 60 520, 100 545, 135 530
               C 125 565, 175 580, 220 555
               C 255 575, 295 540, 320 480 Z"
            fill="url(#furTailBase)" />

      <!-- Deep Charcoal Shadow Layer Under-Tail -->
      <path d="M 310 460
               C 270 410, 190 380, 120 405
               C 70 425, 65 470, 95 505
               C 115 535, 170 560, 215 540
               C 255 560, 295 525, 315 475 Z"
            fill="#120c0a" opacity="0.85" />

      <!-- Mid-Tone Shaggy Fur Strands -->
      <path d="M 300 445 C 240 390, 170 370, 105 400" fill="none" stroke="#6d574a" stroke-width="7" stroke-linecap="round" />
      <path d="M 280 465 C 220 420, 150 405, 90 435" fill="none" stroke="#544339" stroke-width="8" stroke-linecap="round" />
      <path d="M 290 480 C 230 450, 160 440, 110 480" fill="none" stroke="#3e3028" stroke-width="9" stroke-linecap="round" />
      <path d="M 310 490 C 250 490, 190 480, 140 520" fill="none" stroke="#241a15" stroke-width="8" stroke-linecap="round" />

      <!-- Highlight Wisps and Feathery Hair Fringes on Tail Edge -->
      <path d="M 250 380 C 190 355, 135 375, 95 405" fill="none" stroke="#a18d80" stroke-width="2.5" stroke-linecap="round" />
      <path d="M 220 370 C 170 350, 120 370, 80 410" fill="none" stroke="#d7ccc8" stroke-width="1.5" stroke-linecap="round" />
      <path d="M 160 380 C 120 375, 75 410, 65 450" fill="none" stroke="#b09f93" stroke-width="2" stroke-linecap="round" />
      <path d="M 140 430 C 95 435, 65 470, 75 510" fill="none" stroke="#8d7768" stroke-width="2" stroke-linecap="round" />
      <path d="M 180 480 C 135 500, 95 530, 130 550" fill="none" stroke="#5d4c42" stroke-width="2.5" stroke-linecap="round" />
      <path d="M 240 515 C 200 540, 160 565, 205 570" fill="none" stroke="#8d7768" stroke-width="2" stroke-linecap="round" />
    </g>

    <!-- 4. UNICYCLE WHEEL ASSEMBLY -->
    <!-- Wheel Hub located at (400, 630), Outer Radius 68 -->
    <g id="unicycle-wheel">
      <!-- Rubber Tire (Outer diameter 136) -->
      <circle cx="400" cy="630" r="62" fill="none" stroke="url(#tireRubber)" stroke-width="12" />
      <!-- Vintage White Sidewall Stripe -->
      <circle cx="400" cy="630" r="57.5" fill="none" stroke="#eceff1" stroke-width="1.8" opacity="0.9" />
      <!-- Chrome Double-Walled Rim -->
      <circle cx="400" cy="630" r="54.5" fill="none" stroke="url(#chromeMetal)" stroke-width="4.5" />
      <circle cx="400" cy="630" r="52.2" fill="none" stroke="#37474f" stroke-width="1" />

      <!-- Tire Tread Grooves around perimeter -->
      <circle cx="400" cy="630" r="67.5" fill="none" stroke="#101518" stroke-width="1.2" stroke-dasharray="2 4" />

      <!-- 16 High-Tensile Steel Spokes (Continuously Spinning) -->
      <g id="wheel-spokes">
        <animateTransform attributeName="transform" type="rotate"
          from="0 400 630" to="360 400 630"
          dur="2.4s" repeatCount="indefinite" />

        <line x1="400" y1="576" x2="400" y2="684" stroke="#cfd8dc" stroke-width="1.2" opacity="0.85" />
        <line x1="346" y1="630" x2="454" y2="630" stroke="#cfd8dc" stroke-width="1.2" opacity="0.85" />
        <line x1="361.8" y1="591.8" x2="438.2" y2="668.2" stroke="#cfd8dc" stroke-width="1.2" opacity="0.85" />
        <line x1="361.8" y1="668.2" x2="438.2" y2="591.8" stroke="#cfd8dc" stroke-width="1.2" opacity="0.85" />

        <line x1="379.3" y1="579.9" x2="420.7" y2="680.1" stroke="#ffffff" stroke-width="1.1" opacity="0.9" />
        <line x1="420.7" y1="579.9" x2="379.3" y2="680.1" stroke="#ffffff" stroke-width="1.1" opacity="0.9" />
        <line x1="349.9" y1="609.3" x2="450.1" y2="650.7" stroke="#ffffff" stroke-width="1.1" opacity="0.9" />
        <line x1="349.9" y1="650.7" x2="450.1" y2="609.3" stroke="#ffffff" stroke-width="1.1" opacity="0.9" />

        <line x1="390" y1="576.5" x2="410" y2="683.5" stroke="#b0bec5" stroke-width="0.9" opacity="0.75" />
        <line x1="410" y1="576.5" x2="390" y2="683.5" stroke="#b0bec5" stroke-width="0.9" opacity="0.75" />
        <line x1="346.5" y1="620" x2="453.5" y2="640" stroke="#b0bec5" stroke-width="0.9" opacity="0.75" />
        <line x1="346.5" y1="640" x2="453.5" y2="620" stroke="#b0bec5" stroke-width="0.9" opacity="0.75" />
      </g>

      <!-- Center Hub Flange -->
      <circle cx="400" cy="630" r="14" fill="url(#wheelHubGrad)" stroke="#37474f" stroke-width="1.5" />
      <circle cx="400" cy="630" r="7" fill="url(#goldTrim)" />
      <circle cx="400" cy="630" r="3" fill="#212121" />
    </g>

    <!-- 5. UNICYCLE FRAME FORK AND SEATPOST -->
    <g id="unicycle-frame">
      <!-- Chrome Fork Blades: Hub (400, 630) to Crown (400, 520) -->
      <path d="M 395 628 L 396 525 Q 400 518 404 525 L 405 628 Z" fill="url(#chromeMetal)" stroke="#78909c" stroke-width="1" />
      <!-- Fork Crown Collar -->
      <rect x="393" y="515" width="14" height="10" rx="3" fill="url(#goldTrim)" stroke="#b78103" stroke-width="0.8" />

      <!-- Heavy Duty Chrome Seatpost -->
      <rect x="396.5" y="475" width="7" height="42" fill="url(#chromeMetal)" />
      <line x1="399" y1="475" x2="399" y2="517" stroke="#ffffff" stroke-width="1.5" />
      <!-- Seatpost Clamp with Quick-Release Lever -->
      <rect x="394" y="490" width="12" height="6" rx="1.5" fill="#263238" />
      <line x1="406" y1="493" x2="412" y2="489" stroke="url(#chromeMetal)" stroke-width="2" stroke-linecap="round" />

      <!-- Ergonomic Curved Unicycle Saddle -->
      <path d="M 368 472
               C 374 464, 392 463, 400 467
               C 412 472, 428 469, 436 475
               C 439 481, 428 485, 402 483
               C 384 482, 366 480, 368 472 Z"
            fill="url(#leatherSaddle)" stroke="#1a0c08" stroke-width="1.2" />
      <!-- Gold Contrast Stitching on Saddle Seam -->
      <path d="M 371 472 C 382 467, 396 467, 404 470 C 414 473, 426 471, 433 475"
            fill="none" stroke="#ffd54f" stroke-width="0.8" stroke-dasharray="2 1.5" />
      <!-- Front Grab Handle / Scuff Guard -->
      <path d="M 432 473 C 438 472, 442 475, 440 480 C 437 483, 431 482, 428 478 Z" fill="url(#goldTrim)" />
      <!-- Rear Bumper -->
      <path d="M 370 471 C 365 471, 363 474, 365 477 C 367 479, 372 478, 374 474 Z" fill="#212121" />
    </g>

    <!-- 6. FOREGROUND CRANK, PEDAL AND FOOT ASSEMBLY -->
    <g id="fg-pedal-assembly">
      <!-- Foreground Crank rotates smoothly around Hub (400, 630) -->
      <g>
        <animateTransform attributeName="transform" type="rotate"
          from="0 400 630" to="360 400 630"
          dur="2.4s" repeatCount="indefinite" />

        <!-- Chrome Crank Arm (28px radius) -->
        <line x1="400" y1="630" x2="400" y2="602" stroke="url(#chromeMetal)" stroke-width="8" stroke-linecap="round" />
        <circle cx="400" cy="630" r="10" fill="url(#goldTrim)" stroke="#b78103" stroke-width="1" />
        <circle cx="400" cy="602" r="5" fill="#37474f" />

        <!-- Foreground Pedal Platform: Counter-rotates to stay level -->
        <g>
          <animateTransform attributeName="transform" type="rotate"
            from="0 400 602" to="-360 400 602"
            dur="2.4s" repeatCount="indefinite" />

          <!-- Pedal Body with Cleats -->
          <rect x="386" y="598" width="28" height="8" rx="2.5" fill="#212121" stroke="#ffb300" stroke-width="1.2" />
          <line x1="390" y1="597" x2="410" y2="597" stroke="#ff8f00" stroke-width="1.2" stroke-linecap="round" />
          <!-- Amber Safety Reflectors -->
          <rect x="388" y="600" width="4" height="4" rx="1" fill="#ffa000" />
          <rect x="408" y="600" width="4" height="4" rx="1" fill="#ffa000" />

          <!-- Foreground Anteater Paw Resting on Pedal -->
          <g id="anteater-foot-fg">
            <!-- Foot Pad with Cream Sock Marking -->
            <ellipse cx="400" cy="596" rx="13" ry="6.5" fill="url(#furBody)" />
            <path d="M 390 596 Q 400 592 410 595 L 413 599 L 388 599 Z" fill="url(#furWhiteStripe)" />
            <!-- Curved Sickle Claws Gripping Pedal Edge -->
            <path d="M 407 596 Q 416 594 419 600" stroke="url(#clawGrad)" stroke-width="3" stroke-linecap="round" fill="none" />
            <path d="M 409 598 Q 418 597 421 602" stroke="url(#clawGrad)" stroke-width="3.2" stroke-linecap="round" fill="none" />
            <path d="M 406 600 Q 415 601 417 604" stroke="url(#clawGrad)" stroke-width="2.6" stroke-linecap="round" fill="none" />
          </g>
        </g>
      </g>
    </g>

    <!-- 7. FOREGROUND LEG (Pumps gently with pedaling cadence) -->
    <g id="fg-leg">
      <!-- Thigh from Saddle (385, 460) to Knee (365, 520) -->
      <path d="M 382 455 C 365 480, 355 505, 365 528 C 375 550, 392 575, 400 598"
            fill="none" stroke="url(#furBody)" stroke-width="22" stroke-linecap="round" stroke-linejoin="round" />
      <path d="M 382 455 C 365 480, 355 505, 365 528 C 375 550, 392 575, 400 598"
            fill="none" stroke="#2c2420" stroke-width="8" stroke-linecap="round" stroke-linejoin="round" opacity="0.3" />

      <!-- Famous Giant Anteater Leg Markings: Black Ankle Cuff over Cream Socks -->
      <path d="M 378 545 Q 388 565 397 586" fill="none" stroke="url(#furWhiteStripe)" stroke-width="18" stroke-linecap="round" />
      <path d="M 385 562 Q 392 574 398 584" fill="none" stroke="url(#furChestBlack)" stroke-width="12" stroke-linecap="round" />
      <!-- Fur Texture Highlights on Thigh -->
      <path d="M 370 490 Q 358 515 365 530" fill="none" stroke="#8d8078" stroke-width="2" stroke-linecap="round" />
      <path d="M 375 480 Q 365 505 372 525" fill="none" stroke="#b0a49c" stroke-width="1.5" stroke-linecap="round" />
    </g>

    <!-- 8. LEFT (BACKGROUND) ARM (Juggle Tossing Left Side) -->
    <!-- Attached to shoulder at (365, 335), tossing/catching at (330, 290) -->
    <g id="left-arm">
      <animateTransform attributeName="transform" type="rotate"
        values="-7 365 335; 0 365 335; 4 365 335; 6 365 335; -1 365 335; -7 365 335"
        keyTimes="0; 0.2; 0.7; 0.78; 0.92; 1"
        dur="2.4s" repeatCount="indefinite" />

      <!-- Left Bicep and Forearm -->
      <path d="M 365 335 L 332 335 L 335 292" fill="none" stroke="#4a3f38" stroke-width="18" stroke-linecap="round" stroke-linejoin="round" />
      <path d="M 345 335 L 332 335 L 335 292" fill="none" stroke="url(#furWhiteStripe)" stroke-width="14" stroke-linecap="round" stroke-linejoin="round" />
      <!-- Black Wrist Band -->
      <ellipse cx="334" cy="298" rx="8" ry="4" fill="url(#furChestBlack)" />
      <!-- Left Paw with Long Curved Claws poising up -->
      <ellipse cx="333" cy="290" rx="9" ry="7" fill="url(#furWhiteStripe)" />
      <path d="M 328 290 Q 320 282 322 273" stroke="url(#clawGrad)" stroke-width="3" stroke-linecap="round" fill="none" />
      <path d="M 333 288 Q 328 278 331 268" stroke="url(#clawGrad)" stroke-width="3.2" stroke-linecap="round" fill="none" />
      <path d="M 338 290 Q 336 280 341 272" stroke="url(#clawGrad)" stroke-width="2.6" stroke-linecap="round" fill="none" />
    </g>

    <!-- 9. ANTEATER TORSO AND COSTUME -->
    <g id="anteater-torso">
      <!-- Main Muscular Torso Base -->
      <path d="M 345 450
               C 330 380, 345 330, 375 305
               C 405 290, 435 320, 430 360
               C 425 400, 410 445, 385 460 Z"
            fill="url(#furBody)" />

      <!-- Iconic Giant Anteater Shoulder Marking: Broad Diagonal Black Chevron -->
      <path d="M 378 308
               C 405 315, 428 340, 415 375
               C 400 415, 360 435, 342 440
               C 348 410, 365 370, 380 340 Z"
            fill="url(#furChestBlack)" />

      <!-- Crisp White Fur Borders Outlining the Black Chevron -->
      <path d="M 375 306
               C 408 312, 432 338, 418 376"
            fill="none" stroke="url(#furWhiteStripe)" stroke-width="6.5" stroke-linecap="round" />
      <path d="M 342 442
               C 360 415, 378 370, 382 335"
            fill="none" stroke="url(#furWhiteStripe)" stroke-width="5" stroke-linecap="round" />

      <!-- Dapper Crimson Performer Vest with Golden Trim -->
      <path d="M 368 330
               C 388 325, 420 335, 418 368
               C 415 398, 400 435, 375 442
               C 360 445, 348 420, 354 380
               C 358 355, 362 335, 368 330 Z"
            fill="url(#vestRed)" stroke="#ffd54f" stroke-width="1.8" />
      <!-- Golden Vest Lapel and Piping Lines -->
      <path d="M 382 328 L 398 375 L 372 442" fill="none" stroke="url(#goldTrim)" stroke-width="2.2" />
      <path d="M 368 330 Q 355 375 352 420" fill="none" stroke="url(#goldTrim)" stroke-width="1.5" />
      <!-- Shiny Gold Vest Buttons -->
      <circle cx="395" cy="385" r="2.8" fill="url(#goldTrim)" stroke="#b78103" stroke-width="0.7" />
      <circle cx="388" cy="405" r="2.8" fill="url(#goldTrim)" stroke="#b78103" stroke-width="0.7" />
      <!-- Pocket Watch Gold Chain Drape -->
      <path d="M 395 385 Q 405 398 398 408" fill="none" stroke="url(#goldTrim)" stroke-width="1.2" stroke-dasharray="1.5 1" />

      <!-- Red and Gold Striped Bow Tie -->
      <g transform="translate(382, 312)">
        <polygon points="-10,-5 -10,5 0,0" fill="#c62828" stroke="#ffd54f" stroke-width="0.8" />
        <polygon points="10,-5 10,5 0,0" fill="#c62828" stroke="#ffd54f" stroke-width="0.8" />
        <line x1="-8" y1="-3" x2="-8" y2="3" stroke="#ffd54f" stroke-width="1" />
        <line x1="8" y1="-3" x2="8" y2="3" stroke="#ffd54f" stroke-width="1" />
        <circle cx="0" cy="0" r="3.2" fill="url(#goldTrim)" stroke="#b78103" stroke-width="0.8" />
      </g>
    </g>

    <!-- 10. ANTEATER HEAD, DISTINCTIVE SNOUT, EYES AND TOP HAT -->
    <g id="anteater-head">
      <!-- Sloping Tubular Snout and Cranium Profile -->
      <path d="M 366 242
               C 385 242, 420 250, 465 262
               C 495 270, 528 276, 532 281
               C 533 286, 520 288, 495 288
               C 455 288, 420 290, 385 296
               C 375 305, 368 318, 365 330
               C 355 315, 350 265, 366 242 Z"
            fill="url(#furSnout)" />

      <!-- Snout Underside Shading -->
      <path d="M 530 283
               C 515 287, 470 288, 430 289
               C 395 291, 375 300, 368 325
               C 362 312, 368 285, 395 278
               C 440 274, 490 278, 530 283 Z"
            fill="#322924" opacity="0.45" />

      <!-- Snout Bridge Silvery Highlight -->
      <path d="M 390 250 C 430 257, 475 268, 518 277" fill="none" stroke="#d7ccc8" stroke-width="2.5" stroke-linecap="round" opacity="0.6" />

      <!-- Cute Black Button Nose Tip and Nostril -->
      <ellipse cx="531" cy="281.5" rx="3.5" ry="3" fill="#15100e" />
      <circle cx="532" cy="280.8" r="1" fill="#757575" />
      <path d="M 529 283 Q 532 284 534 282" fill="none" stroke="#000000" stroke-width="0.8" />

      <!-- Mischievous Long Slender Pink Tongue Poking and Curling Up -->
      <g id="anteater-tongue">
        <animateTransform attributeName="transform" type="rotate"
          values="0 528 283; -7 528 283; 5 528 283; 0 528 283"
          keyTimes="0; 0.35; 0.7; 1"
          dur="1.2s" repeatCount="indefinite" />

        <path d="M 528 283
                 C 538 284, 548 280, 552 272
                 C 555 266, 549 261, 544 264
                 C 539 267, 540 274, 528 281 Z"
              fill="url(#tongueGrad)" stroke="#ad1457" stroke-width="0.5" />
        <!-- Tongue Wet Specular Sheen -->
        <path d="M 533 282 Q 546 277 547 268" fill="none" stroke="#ffffff" stroke-width="0.8" stroke-linecap="round" opacity="0.75" />
      </g>

      <!-- Expressive Dark Anteater Eye (Tracks Juggling Bottles) -->
      <g id="anteater-eye-group">
        <!-- Dark Eye Patch Marking -->
        <ellipse cx="402" cy="256" rx="9" ry="7" fill="#241b17" transform="rotate(-5 402 256)" />
        <ellipse cx="403" cy="256" rx="6.5" ry="5.5" fill="#5d4037" />
        <!-- Pupil that animates left/right looking up at the bottles -->
        <g id="eye-pupil">
          <ellipse cx="403.5" cy="255.5" rx="4.5" ry="4.5" fill="#000000">
            <animateTransform attributeName="transform" type="translate"
              values="0.8 -0.8; 1.5 -1.2; -0.8 -0.8; -1.2 -1.2; 0.8 -0.8"
              keyTimes="0; 0.25; 0.5; 0.75; 1"
              dur="2.4s" repeatCount="indefinite" />
          </ellipse>
          <!-- Specular Catchlights -->
          <circle cx="405" cy="254" r="1.5" fill="#ffffff" />
          <circle cx="402.5" cy="257.5" r="0.8" fill="#ffffff" />
        </g>
        <!-- Arched Eyelid and Cheerful Focus Brow -->
        <path d="M 395 252 Q 403 247 410 251" fill="none" stroke="#1b120c" stroke-width="2.2" stroke-linecap="round" />
        <path d="M 397 248 Q 404 243 411 247" fill="none" stroke="#a1887f" stroke-width="1.2" stroke-linecap="round" />
      </g>

      <!-- Anteater Round Furry Ear (Top of Head) -->
      <g id="anteater-ear">
        <animateTransform attributeName="transform" type="rotate"
          values="0 366 238; -4 366 238; 3 366 238; 0 366 238"
          keyTimes="0; 0.85; 0.93; 1"
          dur="2.4s" repeatCount="indefinite" />

        <ellipse cx="366" cy="238" rx="8" ry="10" fill="url(#furBody)" transform="rotate(-15 366 238)" />
        <ellipse cx="366" cy="239" rx="5" ry="6.5" fill="#ffcdd2" opacity="0.85" transform="rotate(-15 366 239)" />
        <path d="M 364 235 Q 366 242 368 240" stroke="#ffffff" stroke-width="1.2" stroke-linecap="round" fill="none" />
      </g>

      <!-- Jaunty Ringmaster Mini Top Hat -->
      <g id="circus-hat" transform="translate(378, 222) rotate(-12)">
        <!-- Hat Brim -->
        <ellipse cx="0" cy="0" rx="19" ry="5.5" fill="url(#hatRuby)" stroke="#ffd54f" stroke-width="1" />
        <!-- Hat Crown Cylinder -->
        <path d="M -11 -1 L 11 -1 L 13 -22 L -13 -22 Z" fill="url(#hatRuby)" />
        <!-- Hat Top Oval -->
        <ellipse cx="0" cy="-22" rx="13" ry="4" fill="#ad1457" stroke="#ffd54f" stroke-width="0.8" />
        <!-- Shiny Gold Ribbon Band -->
        <path d="M -11.3 -2 L 11.3 -2 L 11.8 -8 L -11.8 -8 Z" fill="url(#goldTrim)" />
        <!-- Star Buckle -->
        <polygon points="0,-8 1.5,-4 5,-4 2.2,-2 3.2,1.5 0,-0.5 -3.2,1.5 -2.2,-2 -5,-4 -1.5,-4" fill="#ffffff" stroke="#ffb300" stroke-width="0.5" />

        <!-- Fluffy Circus Feather tucked in band -->
        <g id="hat-feather">
          <animateTransform attributeName="transform" type="rotate"
            values="-3 0 -5; 6 0 -5; -3 0 -5"
            keyTimes="0; 0.5; 1"
            dur="1.2s" repeatCount="indefinite" />
          <path d="M 0 -6 Q -8 -22 -14 -32 Q -6 -24 0 -6" fill="#fff9c4" stroke="#ffd54f" stroke-width="0.6" />
          <path d="M 0 -6 Q 6 -20 12 -30 Q 4 -22 0 -6" fill="#ffffff" />
          <line x1="0" y1="-6" x2="-2" y2="-30" stroke="#ffb300" stroke-width="0.7" />
        </g>
      </g>
    </g>

    <!-- 11. RIGHT (FOREGROUND) ARM (Juggle Tossing Right Side) -->
    <!-- Attached to shoulder at (425, 335), tossing/catching at (475, 290) -->
    <g id="right-arm">
      <animateTransform attributeName="transform" type="rotate"
        values="0 425 335; -5 425 335; -8 425 335; 2 425 335; 8 425 335; 0 425 335"
        keyTimes="0; 0.2; 0.28; 0.42; 0.5; 1"
        dur="2.4s" repeatCount="indefinite" />

      <!-- Forearm and Claws -->
      <path d="M 420 338 L 460 348 L 478 296" fill="none" stroke="url(#furBody)" stroke-width="20" stroke-linecap="round" stroke-linejoin="round" />
      <!-- Cream Forearm Coat -->
      <path d="M 440 344 L 460 348 L 478 296" fill="none" stroke="url(#furWhiteStripe)" stroke-width="15" stroke-linecap="round" stroke-linejoin="round" />
      <!-- Black Wrist Cuff Band -->
      <ellipse cx="475" cy="304" rx="9" ry="4.5" fill="url(#furChestBlack)" transform="rotate(-20 475 304)" />

      <!-- Powerful Front Paw with Curved Claws Ready to Catch / Toss -->
      <ellipse cx="480" cy="292" rx="10" ry="7.5" fill="url(#furWhiteStripe)" />
      <!-- Famous Sickle-Hooked Claws -->
      <path d="M 477 289 Q 479 276 486 268" stroke="url(#clawGrad)" stroke-width="3" stroke-linecap="round" fill="none" />
      <path d="M 482 288 Q 487 274 494 265" stroke="url(#clawGrad)" stroke-width="3.5" stroke-linecap="round" fill="none" />
      <path d="M 487 290 Q 494 278 502 272" stroke="url(#clawGrad)" stroke-width="2.8" stroke-linecap="round" fill="none" />
    </g>
  </g>


  <!-- ==================== 3 JUGGLING BOTTLES (SMIL Motion Along Cascade Path) ==================== -->
  <!--
      Period T = 2.4s. Exact 120-degree phase offsets (0.8s apart):
      Bottle 1: Green Soda ("Formic Fizz")       - starts at t = 0.0s
      Bottle 2: Ruby Spiced ("Termite Tonic")     - starts at t = -0.8s
      Bottle 3: Cobalt Nectar ("Ant-Zing")        - starts at t = -1.6s

      Each bottle traverses #jugglePath and completes 720 degrees (2 full flips)
      per period T, flipping gracefully through the air!
  -->

  <!-- BOTTLE 1: Emerald "Formic Fizz" -->
  <g id="flight-bottle-1">
    <animateMotion dur="2.4s" repeatCount="indefinite" begin="0s" calcMode="paced">
      <mpath href="#jugglePath" xlink:href="#jugglePath" />
    </animateMotion>
    <g>
      <animateTransform attributeName="transform" type="rotate"
        from="0 0 0" to="720 0 0"
        dur="2.4s" repeatCount="indefinite" begin="0s" />
      <use href="#bottle-green" xlink:href="#bottle-green" />
    </g>
  </g>

  <!-- BOTTLE 2: Ruby / Amber "Termite Tonic" -->
  <g id="flight-bottle-2">
    <animateMotion dur="2.4s" repeatCount="indefinite" begin="-0.8s" calcMode="paced">
      <mpath href="#jugglePath" xlink:href="#jugglePath" />
    </animateMotion>
    <g>
      <animateTransform attributeName="transform" type="rotate"
        from="0 0 0" to="720 0 0"
        dur="2.4s" repeatCount="indefinite" begin="-0.8s" />
      <use href="#bottle-ruby" xlink:href="#bottle-ruby" />
    </g>
  </g>

  <!-- BOTTLE 3: Cobalt Blue "Ant-Zing" -->
  <g id="flight-bottle-3">
    <animateMotion dur="2.4s" repeatCount="indefinite" begin="-1.6s" calcMode="paced">
      <mpath href="#jugglePath" xlink:href="#jugglePath" />
    </animateMotion>
    <g>
      <animateTransform attributeName="transform" type="rotate"
        from="0 0 0" to="720 0 0"
        dur="2.4s" repeatCount="indefinite" begin="-1.6s" />
      <use href="#bottle-cobalt" xlink:href="#bottle-cobalt" />
    </g>
  </g>


  <!-- ==================== FOREGROUND VIGNETTE AND CIRCUS FRAME ==================== -->
  <!-- Top Gold Corner Medallions -->
  <circle cx="28" cy="28" r="16" fill="url(#goldTrim)" stroke="#b78103" stroke-width="2" />
  <circle cx="28" cy="28" r="11" fill="#880e4f" />
  <polygon points="28,19 31,25 37,26 33,30 34,36 28,33 22,36 23,30 19,26 25,25" fill="#ffd54f" />

  <circle cx="772" cy="28" r="16" fill="url(#goldTrim)" stroke="#b78103" stroke-width="2" />
  <circle cx="772" cy="28" r="11" fill="#880e4f" />
  <polygon points="772,19 775,25 781,26 777,30 778,36 772,33 766,36 767,30 763,26 769,25" fill="#ffd54f" />
</svg>
