<svg xmlns="http://www.w3.org/2000/svg" viewBox="0 -70 960 700" width="960" height="700" role="img" aria-labelledby="title desc" shape-rendering="geometricPrecision">
  <title id="title">Anteater on a unicycle juggling bottles</title>
  <desc id="desc">An animated giant anteater balances on a unicycle, pedals with its hind feet, and juggles three bottles. Its tail sways, its tongue flicks, and its eye blinks.</desc>

  <defs>
    <linearGradient id="sky" x1="0" y1="0" x2="0" y2="1">
      <stop offset="0%" stop-color="#4FC3F7"/>
      <stop offset="58%" stop-color="#B3E5FC"/>
      <stop offset="100%" stop-color="#FFF8E1"/>
    </linearGradient>
    <linearGradient id="groundG" x1="0" y1="0" x2="0" y2="1">
      <stop offset="0%" stop-color="#66BB6A"/>
      <stop offset="100%" stop-color="#2E7D32"/>
    </linearGradient>
    <radialGradient id="sunG" cx="38%" cy="38%" r="65%">
      <stop offset="0%" stop-color="#FFFDE7"/>
      <stop offset="55%" stop-color="#FFD54F"/>
      <stop offset="100%" stop-color="#FFB300"/>
    </radialGradient>
    <radialGradient id="bodyG" cx="32%" cy="30%" r="75%">
      <stop offset="0%" stop-color="#D7C4B8"/>
      <stop offset="62%" stop-color="#A1887F"/>
      <stop offset="100%" stop-color="#6D5348"/>
    </radialGradient>
    <linearGradient id="snoutG" x1="522" y1="258" x2="642" y2="398" gradientUnits="userSpaceOnUse">
      <stop offset="0%" stop-color="#F3E8E0"/>
      <stop offset="42%" stop-color="#C9B3A6"/>
      <stop offset="100%" stop-color="#4E342E"/>
    </linearGradient>
    <clipPath id="bodyClip">
      <ellipse cx="440" cy="310" rx="105" ry="58"/>
    </clipPath>
    <clipPath id="eyeClip">
      <ellipse cx="534" cy="228" rx="11" ry="12"/>
    </clipPath>
  </defs>

  <!-- Sky -->
  <rect x="0" y="-70" width="960" height="700" fill="url(#sky)"/>

  <!-- Sun -->
  <g transform="translate(132,8)">
    <g stroke="#FFE082" stroke-width="5" stroke-linecap="round">
      <animateTransform attributeName="transform" type="rotate" from="0" to="360" dur="36s" repeatCount="indefinite"/>
      <line x1="0" y1="-48" x2="0" y2="-68"/>
      <line x1="34" y1="-34" x2="48" y2="-48"/>
      <line x1="48" y1="0" x2="68" y2="0"/>
      <line x1="34" y1="34" x2="48" y2="48"/>
      <line x1="0" y1="48" x2="0" y2="68"/>
      <line x1="-34" y1="34" x2="-48" y2="48"/>
      <line x1="-48" y1="0" x2="-68" y2="0"/>
      <line x1="-34" y1="-34" x2="-48" y2="-48"/>
    </g>
    <circle r="34" fill="url(#sunG)"/>
    <circle cx="-10" cy="-8" r="10" fill="#FFF8E1" opacity="0.55"/>
  </g>

  <!-- Clouds -->
  <g fill="#FFFFFF">
    <g opacity="0.92">
      <animateTransform attributeName="transform" type="translate" values="0 0; 28 3; 0 0" dur="16s" repeatCount="indefinite"/>
      <ellipse cx="300" cy="-10" rx="46" ry="18"/>
      <ellipse cx="330" cy="-22" rx="32" ry="20"/>
      <ellipse cx="268" cy="-18" rx="28" ry="16"/>
      <ellipse cx="348" cy="-8" rx="22" ry="14"/>
    </g>
    <g opacity="0.88">
      <animateTransform attributeName="transform" type="translate" values="0 0; -22 4; 0 0" dur="20s" repeatCount="indefinite"/>
      <ellipse cx="640" cy="18" rx="54" ry="20"/>
      <ellipse cx="678" cy="6" rx="34" ry="22"/>
      <ellipse cx="604" cy="8" rx="30" ry="16"/>
    </g>
    <g opacity="0.8">
      <animateTransform attributeName="transform" type="translate" values="0 0; 18 -3; 0 0" dur="13s" repeatCount="indefinite"/>
      <ellipse cx="860" cy="-20" rx="40" ry="16"/>
      <ellipse cx="888" cy="-30" rx="24" ry="16"/>
      <ellipse cx="834" cy="-28" rx="22" ry="13"/>
    </g>
  </g>

  <!-- Birds -->
  <g fill="none" stroke="#455A64" stroke-width="2.2" stroke-linecap="round">
    <animateTransform attributeName="transform" type="translate" from="980 40" to="-120 20" dur="22s" repeatCount="indefinite"/>
    <path d="M0,0 Q8,-8 16,0 Q24,-8 32,0"/>
    <path d="M48,10 Q56,2 64,10 Q72,2 80,10"/>
  </g>

  <!-- Hills and ground -->
  <ellipse cx="180" cy="500" rx="250" ry="78" fill="#A5D6A7"/>
  <ellipse cx="560" cy="488" rx="320" ry="70" fill="#C8E6C9"/>
  <ellipse cx="860" cy="505" rx="240" ry="72" fill="#81C784"/>
  <rect x="0" y="512" width="960" height="160" fill="url(#groundG)"/>
  <path d="M0,512 Q40,500 80,512 T160,512 T240,512 T320,512 T400,512 T480,512 T560,512 T640,512 T720,512 T800,512 T880,512 T960,512 V522 H0 Z" fill="#43A047"/>

  <!-- Contact shadow -->
  <ellipse cx="430" cy="518" rx="62" ry="11" fill="#1B5E20" opacity="0.22">
    <animate attributeName="rx" values="54;72;54" dur="2.4s" repeatCount="indefinite"/>
    <animate attributeName="opacity" values="0.22;0.12;0.22" dur="2.4s" repeatCount="indefinite"/>
  </ellipse>

  <!-- Dust kicked by the tire -->
  <g fill="#D7CCC8">
    <circle r="3.5" opacity="0">
      <animate attributeName="cx" values="455;410;360" dur="1.2s" repeatCount="indefinite"/>
      <animate attributeName="cy" values="512;498;488" dur="1.2s" repeatCount="indefinite"/>
      <animate attributeName="opacity" values="0.7;0.25;0" dur="1.2s" repeatCount="indefinite"/>
    </circle>
    <circle r="2.5" opacity="0">
      <animate attributeName="cx" values="448;392;348" dur="1.2s" begin="0.45s" repeatCount="indefinite"/>
      <animate attributeName="cy" values="514;500;492" dur="1.2s" begin="0.45s" repeatCount="indefinite"/>
      <animate attributeName="opacity" values="0.55;0.2;0" dur="1.2s" begin="0.45s" repeatCount="indefinite"/>
    </circle>
  </g>

  <!-- Rider and unicycle sway around the axle -->
  <g>
    <animateTransform attributeName="transform" type="rotate" values="-4 430 442; 4.5 430 442; -4 430 442" keyTimes="0;0.5;1" calcMode="spline" keySplines="0.45 0 0.55 1; 0.45 0 0.55 1" dur="2.4s" repeatCount="indefinite"/>

    <!-- Tail -->
    <g transform="translate(372,332)">
      <g>
        <animateTransform attributeName="transform" type="rotate" values="8; -14; 8" dur="2.4s" repeatCount="indefinite" calcMode="spline" keySplines="0.4 0 0.6 1; 0.4 0 0.6 1" keyTimes="0;0.5;1"/>
        <ellipse cx="-62" cy="-6" rx="78" ry="30" transform="rotate(-16 -62 -6)" fill="#3E2723"/>
        <ellipse cx="-62" cy="-6" rx="72" ry="24" transform="rotate(-16 -62 -6)" fill="#8D6E63"/>
        <ellipse cx="-128" cy="-32" rx="58" ry="24" transform="rotate(-28 -128 -32)" fill="#3E2723"/>
        <ellipse cx="-128" cy="-32" rx="52" ry="18" transform="rotate(-28 -128 -32)" fill="#7A6459"/>
        <ellipse cx="-178" cy="-58" rx="42" ry="20" transform="rotate(-40 -178 -58)" fill="#3E2723"/>
        <ellipse cx="-178" cy="-58" rx="36" ry="15" transform="rotate(-40 -178 -58)" fill="#5D4037"/>
        <path d="M-168,-62 L-198,-92 L-160,-58 Z" fill="#4E342E" stroke="#3E2723" stroke-width="1.5" stroke-linejoin="round"/>
        <path d="M-140,-48 L-158,-78 L-128,-50 Z" fill="#6D5348" stroke="#3E2723" stroke-width="1.5" stroke-linejoin="round"/>
        <path d="M-96,-28 L-104,-58 L-82,-30 Z" fill="#8D6E63" stroke="#3E2723" stroke-width="1.5" stroke-linejoin="round"/>
        <path d="M-24,-8 C-80,-24 -140,-46 -186,-72" fill="none" stroke="#FAFAFA" stroke-width="9" stroke-linecap="round"/>
        <path d="M-24,-8 C-80,-24 -140,-46 -186,-72" fill="none" stroke="#1A1A1A" stroke-width="4.5" stroke-linecap="round"/>
      </g>
    </g>

    <!-- Rear arm (behind the body) -->
    <path d="M343,288 C295,230 315,185 350,165" fill="none" stroke="#3E2723" stroke-width="26" stroke-linecap="round"/>
    <path d="M343,288 C295,230 315,185 350,165" fill="none" stroke="#8D6E63" stroke-width="18" stroke-linecap="round"/>

    <!-- Drooping snout, base tucked under the head -->
    <path d="M522,258 C565,315 615,355 642,398" fill="none" stroke="#3E2723" stroke-width="32" stroke-linecap="round"/>
    <path d="M522,258 C565,315 615,355 642,398" fill="none" stroke="url(#snoutG)" stroke-width="26" stroke-linecap="round"/>

    <!-- Unicycle frame behind the wheel -->
    <line x1="414" y1="366" x2="422" y2="442" stroke="#8E0000" stroke-width="7" stroke-linecap="round"/>
    <line x1="430" y1="338" x2="430" y2="366" stroke="#C62828" stroke-width="7" stroke-linecap="round"/>
    <line x1="408" y1="366" x2="452" y2="366" stroke="#B71C1C" stroke-width="8" stroke-linecap="round"/>

    <!-- Seat -->
    <ellipse cx="388" cy="350" rx="50" ry="13" fill="#3E2723"/>
    <ellipse cx="386" cy="348" rx="46" ry="11" fill="#4E342E"/>
    <ellipse cx="372" cy="344" rx="24" ry="5" fill="#6D4C41"/>

    <!-- Wheel -->
    <g transform="translate(430,442)">
      <circle r="64" fill="#ECEFF1"/>
      <g stroke="#90A4AE" stroke-width="3.2" stroke-linecap="round">
        <animateTransform attributeName="transform" type="rotate" from="0" to="360" dur="1.2s" repeatCount="indefinite"/>
        <line x1="-58" y1="0" x2="58" y2="0"/>
        <line x1="0" y1="-58" x2="0" y2="58"/>
        <line x1="-41" y1="-41" x2="41" y2="41"/>
        <line x1="-41" y1="41" x2="41" y2="-41"/>
        <rect x="52" y="-3" width="10" height="6" rx="1.2" fill="#546E7A" stroke="none"/>
      </g>
      <circle r="56" fill="none" stroke="#B0BEC5" stroke-width="2.5"/>
      <circle r="64" fill="none" stroke="#212121" stroke-width="13"/>
      <path d="M-46,-28 A64,64 0 0 1 -10,-60" fill="none" stroke="#78909C" stroke-width="3.5" stroke-linecap="round" opacity="0.55"/>
      <circle r="14" fill="#546E7A" stroke="#212121" stroke-width="2.5"/>
      <circle r="5" fill="#CFD8DC"/>
    </g>

    <!-- Front fork blade -->
    <line x1="446" y1="366" x2="438" y2="442" stroke="#E53935" stroke-width="8" stroke-linecap="round"/>

    <!-- Far hind leg, opposite pedal phase -->
    <g fill="none" stroke-linecap="round">
      <path stroke="#3E2723" stroke-width="22" d="M420,356 L452,409">
        <animate attributeName="d" dur="1.2s" repeatCount="indefinite"
          values="M420,356 L452,409;M420,356 L464,399;M420,356 L477,381;M420,356 L479,374;M420,356 L474,387;M420,356 L460,404;M420,356 L446,412;M420,356 L445,413;M420,356 L452,409"/>
      </path>
      <path stroke="#5D4037" stroke-width="15" d="M420,356 L452,409">
        <animate attributeName="d" dur="1.2s" repeatCount="indefinite"
          values="M420,356 L452,409;M420,356 L464,399;M420,356 L477,381;M420,356 L479,374;M420,356 L474,387;M420,356 L460,404;M420,356 L446,412;M420,356 L445,413;M420,356 L452,409"/>
      </path>
      <path stroke="#3E2723" stroke-width="20" d="M452,409 L404,442">
        <animate attributeName="d" dur="1.2s" repeatCount="indefinite"
          values="M452,409 L404,442;M464,399 L412,424;M477,381 L430,416;M479,374 L448,424;M474,387 L456,442;M460,404 L448,460;M446,412 L430,468;M445,413 L412,460;M452,409 L404,442"/>
      </path>
      <path stroke="#5D4037" stroke-width="13" d="M452,409 L404,442">
        <animate attributeName="d" dur="1.2s" repeatCount="indefinite"
          values="M452,409 L404,442;M464,399 L412,424;M477,381 L430,416;M479,374 L448,424;M474,387 L456,442;M460,404 L448,460;M446,412 L430,468;M445,413 L412,460;M452,409 L404,442"/>
      </path>
    </g>

    <!-- Near hind leg, locked to the near pedal -->
    <g fill="none" stroke-linecap="round">
      <path stroke="#3E2723" stroke-width="26" d="M445,352 L493,395">
        <animate attributeName="d" dur="1.2s" repeatCount="indefinite"
          values="M445,352 L493,395;M445,352 L477,408;M445,352 L458,415;M445,352 L452,416;M445,352 L457,415;M445,352 L470,411;M445,352 L488,400;M445,352 L497,389;M445,352 L493,395"/>
      </path>
      <path stroke="#B08978" stroke-width="18" d="M445,352 L493,395">
        <animate attributeName="d" dur="1.2s" repeatCount="indefinite"
          values="M445,352 L493,395;M445,352 L477,408;M445,352 L458,415;M445,352 L452,416;M445,352 L457,415;M445,352 L470,411;M445,352 L488,400;M445,352 L497,389;M445,352 L493,395"/>
      </path>
      <path stroke="#3E2723" stroke-width="23" d="M493,395 L456,442">
        <animate attributeName="d" dur="1.2s" repeatCount="indefinite"
          values="M493,395 L456,442;M477,408 L448,460;M458,415 L430,468;M452,416 L412,460;M457,415 L404,442;M470,411 L412,424;M488,400 L430,416;M497,389 L448,424;M493,395 L456,442"/>
      </path>
      <path stroke="#B08978" stroke-width="15" d="M493,395 L456,442">
        <animate attributeName="d" dur="1.2s" repeatCount="indefinite"
          values="M493,395 L456,442;M477,408 L448,460;M458,415 L430,468;M452,416 L412,460;M457,415 L404,442;M470,411 L412,424;M488,400 L430,416;M497,389 L448,424;M493,395 L456,442"/>
      </path>
    </g>

    <!-- Body fur tufts -->
    <path d="M400,258 L386,232 L422,254 Z" fill="#8D6E63" stroke="#3E2723" stroke-width="1.6" stroke-linejoin="round"/>
    <path d="M368,278 L348,254 L390,282 Z" fill="#7A6459" stroke="#3E2723" stroke-width="1.6" stroke-linejoin="round"/>
    <path d="M348,312 L330,292 L366,318 Z" fill="#8D6E63" stroke="#3E2723" stroke-width="1.6" stroke-linejoin="round"/>

    <!-- Torso -->
    <ellipse cx="440" cy="310" rx="105" ry="58" fill="url(#bodyG)" stroke="#3E2723" stroke-width="2.6"/>
    <g clip-path="url(#bodyClip)">
      <ellipse cx="470" cy="332" rx="58" ry="30" fill="#F3EBE6"/>
      <ellipse cx="400" cy="286" rx="62" ry="22" fill="#FFFFFF" opacity="0.14"/>
      <path d="M500,268 C468,302 430,332 378,350" stroke="#FFFFFF" stroke-width="28" fill="none" stroke-linecap="round"/>
      <path d="M500,268 C468,302 430,332 378,350" stroke="#1A1A1A" stroke-width="15" fill="none" stroke-linecap="round"/>
    </g>

    <!-- Neck -->
    <ellipse cx="492" cy="268" rx="38" ry="28" fill="#CDB8A9"/>

    <!-- Back ear -->
    <g transform="translate(470,214)">
      <ellipse cx="0" cy="0" rx="12" ry="16" transform="rotate(-8)" fill="#5D4037" stroke="#3E2723" stroke-width="2"/>
      <ellipse cx="1" cy="2" rx="6" ry="8" transform="rotate(-8)" fill="#E8B8A8"/>
    </g>

    <!-- Head -->
    <ellipse cx="515" cy="242" rx="46" ry="38" fill="#CDB8A9" stroke="#3E2723" stroke-width="2.6"/>

    <!-- Front ear -->
    <g transform="translate(486,206)">
      <g>
        <animateTransform attributeName="transform" type="rotate" values="0; -8; 0; 5; 0" dur="3.6s" repeatCount="indefinite"/>
        <ellipse cx="0" cy="0" rx="14" ry="20" transform="rotate(-22)" fill="#8D6E63" stroke="#3E2723" stroke-width="2.2"/>
        <ellipse cx="1" cy="3" rx="7" ry="11" transform="rotate(-22)" fill="#FFCCBC"/>
      </g>
    </g>

    <!-- Snout highlight, nose, tongue -->
    <path d="M534,262 C572,308 612,348 634,386" fill="none" stroke="#FFFFFF" stroke-width="4" stroke-linecap="round" opacity="0.35"/>
    <circle cx="646" cy="400" r="15" fill="#3E2723"/>
    <ellipse cx="652" cy="404" rx="4.2" ry="3" fill="#1A120B"/>
    <ellipse cx="638" cy="394" rx="3.2" ry="2" fill="#8D6E63" opacity="0.8"/>
    <path d="M632,406 Q642,414 654,406" fill="none" stroke="#2C1810" stroke-width="1.6" stroke-linecap="round"/>
    <path d="M640,408 Q632,424 626,436" fill="none" stroke="#EC407A" stroke-width="4" stroke-linecap="round">
      <animate attributeName="d" dur="2.6s" repeatCount="indefinite"
        values="M640,408 Q636,414 634,418;M640,408 Q628,426 618,442;M640,408 Q636,414 634,418"/>
    </path>

    <!-- Eye -->
    <g clip-path="url(#eyeClip)">
      <ellipse cx="534" cy="228" rx="11" ry="12" fill="#FFFFFF"/>
      <circle cx="537" cy="229" r="6" fill="#1A1A1A"/>
      <circle cx="539" cy="226" r="2.1" fill="#FFFFFF"/>
      <rect x="520" y="202" width="30" height="18" fill="#CDB8A9">
        <animate attributeName="y" dur="4.2s" repeatCount="indefinite"
          values="202;202;220;202;202;220;202;202"
          keyTimes="0;0.82;0.85;0.88;0.92;0.95;0.98;1"/>
      </rect>
    </g>
    <ellipse cx="534" cy="228" rx="11" ry="12" fill="none" stroke="#3E2723" stroke-width="2"/>
    <path d="M520,214 Q534,206 550,214" fill="none" stroke="#3E2723" stroke-width="2.6" stroke-linecap="round"/>
    <ellipse cx="552" cy="242" rx="7" ry="4" fill="#E5989B" opacity="0.45"/>

    <!-- Front arm -->
    <path d="M540,305 C600,230 640,175 610,165" fill="none" stroke="#3E2723" stroke-width="26" stroke-linecap="round"/>
    <path d="M540,305 C600,230 640,175 610,165" fill="none" stroke="#A1887F" stroke-width="18" stroke-linecap="round"/>

    <!-- Paws -->
    <g stroke="#3E2723" stroke-width="2" stroke-linecap="round">
      <circle cx="350" cy="165" r="14" fill="#D7CCC8"/>
      <path d="M342,154 L336,140 M350,151 L350,136 M358,154 L366,141" fill="none" stroke-width="2.4"/>
      <circle cx="610" cy="165" r="14" fill="#D7CCC8"/>
      <path d="M602,154 L596,140 M610,151 L610,136 M618,154 L626,141" fill="none" stroke-width="2.4"/>
    </g>

    <!-- Crank, pedals, and clawed feet. Feet counter-rotate so they stay upright. -->
    <g transform="translate(430,442)">
      <g>
        <animateTransform attributeName="transform" type="rotate" from="0" to="360" dur="1.2s" repeatCount="indefinite"/>
        <line x1="-26" y1="0" x2="26" y2="0" stroke="#37474F" stroke-width="5.5" stroke-linecap="round"/>
        <circle r="4.5" fill="#263238"/>

        <g transform="translate(-26,0)">
          <g>
            <animateTransform attributeName="transform" type="rotate" from="0" to="-360" dur="1.2s" repeatCount="indefinite"/>
            <rect x="-11" y="-4" width="22" height="9" rx="2" fill="#F9A825" stroke="#3E2723" stroke-width="1.4"/>
            <ellipse cx="0" cy="-7" rx="11" ry="7" fill="#5D4037" stroke="#3E2723" stroke-width="1.5"/>
            <path d="M-7,-2 L-11,10 M0,0 L0,12 M7,-2 L11,9" fill="none" stroke="#2C1810" stroke-width="2.2" stroke-linecap="round"/>
          </g>
        </g>

        <g transform="translate(26,0)">
          <g>
            <animateTransform attributeName="transform" type="rotate" from="0" to="-360" dur="1.2s" repeatCount="indefinite"/>
            <rect x="-12" y="-4.5" width="24" height="10" rx="2.2" fill="#FDD835" stroke="#3E2723" stroke-width="1.5"/>
            <ellipse cx="0" cy="-8" rx="12" ry="7.5" fill="#BCAAA4" stroke="#3E2723" stroke-width="1.6"/>
            <path d="M-8,-2 L-12,11 M0,0 L0,14 M8,-2 L12,10" fill="none" stroke="#2C1810" stroke-width="2.4" stroke-linecap="round"/>
            <path d="M-8,-6 H8" fill="none" stroke="#6D4C41" stroke-width="2" stroke-linecap="round"/>
          </g>
        </g>
      </g>
    </g>

    <!-- Juggling bottles. Three copies of one loop, phased by a third of the cycle. -->
    <g>
      <animateMotion dur="1.5s" repeatCount="indefinite" path="M350,165 C350,28 610,28 610,165 C610,88 350,88 350,165"/>
      <g>
        <animateTransform attributeName="transform" type="rotate" values="-14; 16; -14" dur="1.5s" repeatCount="indefinite"/>
        <g transform="scale(0.84)">
          <path d="M-4,-40 C-4,-40 -13,-36 -13,-24 L-13,-3 Q-13,5 0,5 Q13,5 13,-3 L13,-24 C13,-36 4,-40 4,-40 Z" fill="#FFF3E0" stroke="#263238" stroke-width="1.6" stroke-linejoin="round"/>
          <path d="M-10,-15 L-10,-2 Q-10,2 0,2 Q10,2 10,-2 L10,-15 Z" fill="#FB8C00"/>
          <rect x="-9" y="-14" width="18" height="8" rx="1" fill="#FFFFFF" opacity="0.92"/>
          <rect x="-9" y="-11.2" width="18" height="2.4" fill="#E53935"/>
          <path d="M-4,-40 V-52 H4 V-40" fill="#FFF3E0" stroke="#263238" stroke-width="1.6"/>
          <rect x="-5.5" y="-60" width="11" height="10" rx="1.6" fill="#E53935" stroke="#263238" stroke-width="1.3"/>
          <path d="M-8,-30 Q-9,-18 -8,-8" fill="none" stroke="#FFFFFF" stroke-width="2.3" stroke-linecap="round" opacity="0.7"/>
        </g>
      </g>
    </g>
    <g>
      <animateMotion dur="1.5s" begin="-0.5s" repeatCount="indefinite" path="M350,165 C350,28 610,28 610,165 C610,88 350,88 350,165"/>
      <g>
        <animateTransform attributeName="transform" type="rotate" values="12; -16; 12" dur="1.5s" begin="-0.5s" repeatCount="indefinite"/>
        <g transform="scale(0.84)">
          <path d="M-4,-40 C-4,-40 -13,-36 -13,-24 L-13,-3 Q-13,5 0,5 Q13,5 13,-3 L13,-24 C13,-36 4,-40 4,-40 Z" fill="#E8F5E9" stroke="#263238" stroke-width="1.6" stroke-linejoin="round"/>
          <path d="M-10,-15 L-10,-2 Q-10,2 0,2 Q10,2 10,-2 L10,-15 Z" fill="#43A047"/>
          <rect x="-9" y="-14" width="18" height="8" rx="1" fill="#FFFFFF" opacity="0.92"/>
          <rect x="-9" y="-11.2" width="18" height="2.4" fill="#2E7D32"/>
          <path d="M-4,-40 V-52 H4 V-40" fill="#E8F5E9" stroke="#263238" stroke-width="1.6"/>
          <rect x="-5.5" y="-60" width="11" height="10" rx="1.6" fill="#2E7D32" stroke="#263238" stroke-width="1.3"/>
          <path d="M-8,-30 Q-9,-18 -8,-8" fill="none" stroke="#FFFFFF" stroke-width="2.3" stroke-linecap="round" opacity="0.7"/>
        </g>
      </g>
    </g>
    <g>
      <animateMotion dur="1.5s" begin="-1s" repeatCount="indefinite" path="M350,165 C350,28 610,28 610,165 C610,88 350,88 350,165"/>
      <g>
        <animateTransform attributeName="transform" type="rotate" values="-10; 18; -10" dur="1.5s" begin="-1s" repeatCount="indefinite"/>
        <g transform="scale(0.84)">
          <path d="M-4,-40 C-4,-40 -13,-36 -13,-24 L-13,-3 Q-13,5 0,5 Q13,5 13,-3 L13,-24 C13,-36 4,-40 4,-40 Z" fill="#E3F2FD" stroke="#263238" stroke-width="1.6" stroke-linejoin="round"/>
          <path d="M-10,-15 L-10,-2 Q-10,2 0,2 Q10,2 10,-2 L10,-15 Z" fill="#1E88E5"/>
          <rect x="-9" y="-14" width="18" height="8" rx="1" fill="#FFFFFF" opacity="0.92"/>
          <rect x="-9" y="-11.2" width="18" height="2.4" fill="#1565C0"/>
          <path d="M-4,-40 V-52 H4 V-40" fill="#E3F2FD" stroke="#263238" stroke-width="1.6"/>
          <rect x="-5.5" y="-60" width="11" height="10" rx="1.6" fill="#1565C0" stroke="#263238" stroke-width="1.3"/>
          <path d="M-8,-30 Q-9,-18 -8,-8" fill="none" stroke="#FFFFFF" stroke-width="2.3" stroke-linecap="round" opacity="0.7"/>
        </g>
      </g>
    </g>
  </g>

  <!-- Foreground grass -->
  <g>
    <g transform="translate(70,512)">
      <g>
        <animateTransform attributeName="transform" type="rotate" values="-6; 8; -6" dur="2.1s" repeatCount="indefinite"/>
        <path d="M0,0 C6,-14 10,-26 2,-36 C12,-22 8,-10 0,0 Z" fill="#2E7D32"/>
      </g>
    </g>
    <g transform="translate(108,512)">
      <g>
        <animateTransform attributeName="transform" type="rotate" values="5; -7; 5" dur="2.6s" repeatCount="indefinite"/>
        <path d="M0,0 C-4,-12 -2,-24 4,-32 C-6,-18 -4,-8 0,0 Z" fill="#388E3C"/>
      </g>
    </g>
    <g transform="translate(150,514)">
      <g>
        <animateTransform attributeName="transform" type="rotate" values="-4; 6; -4" dur="1.8s" begin="0.2s" repeatCount="indefinite"/>
        <path d="M0,0 C5,-10 8,-20 1,-28 C9,-16 5,-8 0,0 Z" fill="#43A047"/>
      </g>
    </g>
    <g transform="translate(250,512)">
      <g>
        <animateTransform attributeName="transform" type="rotate" values="3; -8; 3" dur="2.4s" begin="0.4s" repeatCount="indefinite"/>
        <path d="M0,0 C-5,-12 -8,-22 -1,-34 C-10,-18 -6,-8 0,0 Z" fill="#2E7D32"/>
      </g>
    </g>
    <g transform="translate(600,514)">
      <g>
        <animateTransform attributeName="transform" type="rotate" values="-5; 6; -5" dur="2.2s" repeatCount="indefinite"/>
        <path d="M0,0 C4,-12 9,-24 2,-34 C11,-20 6,-8 0,0 Z" fill="#388E3C"/>
      </g>
    </g>
    <g transform="translate(760,512)">
      <g>
        <animateTransform attributeName="transform" type="rotate" values="6; -5; 6" dur="2.7s" begin="0.3s" repeatCount="indefinite"/>
        <path d="M0,0 C-4,-14 -6,-26 2,-36 C-8,-20 -5,-8 0,0 Z" fill="#2E7D32"/>
      </g>
    </g>
    <g transform="translate(830,514)">
      <g>
        <animateTransform attributeName="transform" type="rotate" values="-7; 5; -7" dur="1.9s" repeatCount="indefinite"/>
        <path d="M0,0 C5,-12 8,-22 1,-30 C10,-16 6,-8 0,0 Z" fill="#43A047"/>
      </g>
    </g>
    <g transform="translate(900,512)">
      <g>
        <animateTransform attributeName="transform" type="rotate" values="4; -6; 4" dur="2.5s" begin="0.15s" repeatCount="indefinite"/>
        <path d="M0,0 C-3,-12 -7,-24 0,-34 C-9,-18 -4,-8 0,0 Z" fill="#1B5E20"/>
      </g>
    </g>
  </g>

  <!-- Flowers -->
  <g transform="translate(96,496)">
    <path d="M0,22 C2,8 -2,4 0,-2" fill="none" stroke="#2E7D32" stroke-width="2"/>
    <circle cx="-6" cy="-6" r="4" fill="#F48FB1"/>
    <circle cx="6" cy="-6" r="4" fill="#F48FB1"/>
    <circle cx="0" cy="-11" r="4" fill="#F48FB1"/>
    <circle cx="-4" cy="-1" r="4" fill="#F48FB1"/>
    <circle cx="4" cy="-1" r="4" fill="#F48FB1"/>
    <circle cx="0" cy="-6" r="2.4" fill="#FDD835"/>
  </g>
  <g transform="translate(868,500)">
    <path d="M0,18 C-2,6 2,2 0,-6" fill="none" stroke="#2E7D32" stroke-width="2"/>
    <circle cx="0" cy="-12" r="6" fill="#CE93D8"/>
    <circle cx="0" cy="-12" r="2.5" fill="#FFF59D"/>
  </g>
</svg>
